<svg xmlns="http://www.w3.org/2000/svg" xmlns:xlink="http://www.w3.org/1999/xlink" viewBox="0 0 240.11 88.33"><defs fill="#000000"><style>.cls-1{fill:none;}.cls-2{clip-path:url(#clip-path);}.cls-3{fill:#8e8f8f;}.cls-4{fill:#515354;}.cls-5{fill:#ffbd59;}</style><clipPath id="clip-path" transform="translate(0 -0.04)" fill="#000000"><rect class="cls-1" width="82.04" height="76.44" fill="#000000"/></clipPath></defs><g id="Layer_2" data-name="Layer 2"><g id="Layer_1-2" data-name="Layer 1"><g class="cls-2"><path class="cls-3" d="M0,38.2C0,17.16,18.37,0,41,0a5.17,5.17,0,0,1,5.34,5A5.16,5.16,0,0,1,41,10C24.26,10,10.68,22.65,10.68,38.2S24.26,66.4,41,66.4a5,5,0,1,1,0,9.95C18.37,76.35,0,59.23,0,38.2Z" transform="translate(0 -0.04)" fill="#000000"/><path class="cls-4" d="M24.87,12.06a11.78,11.78,0,0,0,.19,2.15A31.69,31.69,0,0,1,41,10a5.17,5.17,0,0,0,5.34-5A5.17,5.17,0,0,0,41,0a43.42,43.42,0,0,0-10,1.16A13,13,0,0,0,24.87,12.06Zm0,51.76A13.29,13.29,0,0,1,25,62.14,31.69,31.69,0,0,0,41,66.4a5,5,0,1,1,0,9.95,44.06,44.06,0,0,1-8.59-.84A13.19,13.19,0,0,1,24.87,63.82Z" transform="translate(0 -0.04)" fill="#000000"/><path class="cls-5" d="M71.22,38.19a27.06,27.06,0,0,0-8.72-19.8A31.21,31.21,0,0,0,41,10h-.17a3.34,3.34,0,0,0-3.05,1.79,3.06,3.06,0,0,0,.35,3.49,36.1,36.1,0,0,1,.23,45.56A3.25,3.25,0,0,0,38,64.55a3.56,3.56,0,0,0,3.3,1.85h.49A31.15,31.15,0,0,0,62.45,58a27.12,27.12,0,0,0,8.76-19.4C71.22,38.46,71.22,38.33,71.22,38.19ZM26.66,13.28a12.6,12.6,0,0,1,1.5-5.92A14.16,14.16,0,0,1,40.72,0H41A42.2,42.2,0,0,1,70.1,11.4a36.27,36.27,0,0,1,0,53.58A42.19,42.19,0,0,1,42,76.34h-.65a14.45,14.45,0,0,1-12.93-7.27,12.68,12.68,0,0,1,1.27-14.16,26.67,26.67,0,0,0-.17-33.67A12.66,12.66,0,0,1,26.66,13.28Z" transform="translate(0 -0.04)" fill="#000000"/></g><path class="cls-3" d="M104.71,56.61l7.37.19q-.72,5.72-4,8.84a11.65,11.65,0,0,1-8.44,3.12A12.45,12.45,0,0,1,90.9,47.52a12.24,12.24,0,0,1,9-3.61,11.81,11.81,0,0,1,8.74,3.54A13.8,13.8,0,0,1,112,54.27l-7.54.5q-1.27-3.89-4.81-3.89A4.87,4.87,0,0,0,96,52.45a5.59,5.59,0,0,0-1.46,4,5.37,5.37,0,0,0,1.44,3.84,5.28,5.28,0,0,0,7.2.18A6,6,0,0,0,104.71,56.61Z" transform="translate(0 -0.04)" fill="#000000"/><path class="cls-3" d="M121.41,44.5V68.17h-6.48V44.5Z" transform="translate(0 -0.04)" fill="#000000"/><path class="cls-3" d="M134.82,61.69V68.4a9.15,9.15,0,0,1-8-2.43,9,9,0,0,1,6.41-15.43A8.91,8.91,0,0,1,139.89,53a9.15,9.15,0,0,1,2.42,6.7v8.48h-6.49v-8a3.3,3.3,0,0,0-.67-2.18,2.17,2.17,0,0,0-1.79-.82,2.42,2.42,0,0,0-1.77.75,2.39,2.39,0,0,0-.75,1.77,2.42,2.42,0,0,0,.68,1.76,2.27,2.27,0,0,0,1.72.7A3,3,0,0,0,134.82,61.69Z" transform="translate(0 -0.04)" fill="#000000"/><path class="cls-3" d="M156.92,51.13V58a2.66,2.66,0,0,0-1.88.51,3.44,3.44,0,0,0-.65,2q-.45,5-3.88,7.08a10.35,10.35,0,0,1-5.17,1.07h-.9V61.77h.29a3.1,3.1,0,0,0,2.23-.65,3.36,3.36,0,0,0,.77-2.28,16.21,16.21,0,0,1,.5-3.72A5.46,5.46,0,0,1,149.68,53,7.28,7.28,0,0,1,155,51.13Z" transform="translate(0 -0.04)" fill="#000000"/><path class="cls-3" d="M169.88,51.13V58a2.64,2.64,0,0,0-1.88.51,3.37,3.37,0,0,0-.65,2q-.45,5-3.89,7.08a10.32,10.32,0,0,1-5.17,1.07h-.9V61.77h.3a3.11,3.11,0,0,0,2.23-.65,3.46,3.46,0,0,0,.77-2.28,15.79,15.79,0,0,1,.49-3.72A5.46,5.46,0,0,1,162.63,53a7.28,7.28,0,0,1,5.29-1.85Z" transform="translate(0 -0.04)" fill="#000000"/><path class="cls-3" d="M174.23,75.75V70.12a6.28,6.28,0,0,0,2.31.55c2.1,0,3.47-1.19,4.09-3.55a6.5,6.5,0,0,1-3.33,1,5,5,0,0,1-4-1.79,6.72,6.72,0,0,1-1.56-4.57V50.88h6.48v9.3c0,1,.43,1.54,1.29,1.54s1.23-.56,1.23-1.7V50.88h6.48V66.32a10,10,0,0,1-2.42,7,9.2,9.2,0,0,1-7,3.15A9.9,9.9,0,0,1,174.23,75.75Z" transform="translate(0 -0.04)" fill="#000000"/><path class="cls-3" d="M197.14,74.57h-6.49V60.14a9.79,9.79,0,0,1,2.08-6.46,8.41,8.41,0,0,1,3.05-2.29,9.24,9.24,0,0,1,10.3,1.75,8.58,8.58,0,0,1,2.66,6.38,8.73,8.73,0,0,1-2.64,6.35,8.47,8.47,0,0,1-6.24,2.67c-.39,0-1,0-1.73-.12V61.27a2.52,2.52,0,0,0,1.59.64,2.35,2.35,0,0,0,1.73-.74,2.47,2.47,0,0,0,.72-1.77,2.32,2.32,0,0,0-.75-1.74,2.48,2.48,0,0,0-1.79-.72q-2.49,0-2.49,3.45Z" transform="translate(0 -0.04)" fill="#000000"/><path class="cls-3" d="M221.07,50.71v6.94a2.48,2.48,0,0,0-1.23-.38q-1.77,0-1.77,2.7v8.2h-6.49V58.72a8.46,8.46,0,0,1,2-6,7,7,0,0,1,5.46-2.23A12.93,12.93,0,0,1,221.07,50.71Z" transform="translate(0 -0.04)" fill="#000000"/><path class="cls-3" d="M231.18,50.52a8.54,8.54,0,0,1,6.3,2.65,8.95,8.95,0,0,1,0,12.71,9.14,9.14,0,0,1-12.85,0,8.66,8.66,0,0,1-2.67-6.38,8.56,8.56,0,0,1,2.67-6.39A9.07,9.07,0,0,1,231.18,50.52Zm-.18,6.4a2.39,2.39,0,0,0-1.77.75,2.59,2.59,0,0,0-.72,1.85,2.55,2.55,0,0,0,.73,1.84,2.44,2.44,0,0,0,3.54,0,2.56,2.56,0,0,0,.74-1.84,2.6,2.6,0,0,0-.73-1.85A2.4,2.4,0,0,0,231,56.92Z" transform="translate(0 -0.04)" fill="#000000"/><path class="cls-3" d="M174.2,82.36l-1.07.37a2,2,0,0,0-.5-.88,1.12,1.12,0,0,0-.83-.29,1,1,0,0,0-.77.29.94.94,0,0,0-.26.67.8.8,0,0,0,.3.66,4.66,4.66,0,0,0,1.2.59,8,8,0,0,1,1.19.56,2.17,2.17,0,0,1,.67.71,2.08,2.08,0,0,1,.26,1,2.21,2.21,0,0,1-.68,1.62,2.51,2.51,0,0,1-1.88.67,2.44,2.44,0,0,1-2.59-2.12l1.12-.31a1.48,1.48,0,0,0,1.52,1.39,1.23,1.23,0,0,0,.92-.31,1,1,0,0,0,.31-.77,1,1,0,0,0-.21-.63,2.65,2.65,0,0,0-1.08-.61,9.55,9.55,0,0,1-1.31-.58,2.11,2.11,0,0,1-.68-.71,2,2,0,0,1-.28-1,2,2,0,0,1,.63-1.52,2.28,2.28,0,0,1,1.67-.62A2.25,2.25,0,0,1,174.2,82.36Z" transform="translate(0 -0.04)" fill="#000000"/><path class="cls-3" d="M177.76,80.67H179v7.56h-1.25Z" transform="translate(0 -0.04)" fill="#000000"/><path class="cls-3" d="M182.69,80.67h1.48l2.48,5.45V80.67h1v7.56h-1.17l-2.79-6v6h-1.05Z" transform="translate(0 -0.04)" fill="#000000"/><path class="cls-3" d="M195.17,85.69l1.15.16c-.24,1.68-1.06,2.52-2.47,2.52a2.25,2.25,0,0,1-2-1.06,5.2,5.2,0,0,1-.68-2.83,5.05,5.05,0,0,1,.72-2.93,2.34,2.34,0,0,1,2-1c1.39,0,2.2.86,2.44,2.59l-1.16.17c-.13-1.15-.55-1.72-1.27-1.72-1,0-1.45,1-1.45,3s.48,2.78,1.45,2.78a1,1,0,0,0,.86-.42A3,3,0,0,0,195.17,85.69Z" transform="translate(0 -0.04)" fill="#000000"/><path class="cls-3" d="M199.62,80.67H204v1h-3.07v2.15h2.41v1h-2.41v2.37H204v1h-4.38Z" transform="translate(0 -0.04)" fill="#000000"/><path class="cls-3" d="M212.26,83.1l-1.12-.24a3,3,0,0,1,.82-1.73,2.25,2.25,0,0,1,1.61-.6,2.19,2.19,0,0,1,1.66.63,2.23,2.23,0,0,1,.61,1.6,3.28,3.28,0,0,1-.87,2.15,15,15,0,0,1-2.51,2.22h3.42l0,1.1h-4.69V87.15a19.85,19.85,0,0,0,2.8-2.76,2.87,2.87,0,0,0,.61-1.56,1.42,1.42,0,0,0-.29-.91.94.94,0,0,0-.77-.35Q212.46,81.57,212.26,83.1Z" transform="translate(0 -0.04)" fill="#000000"/><path class="cls-3" d="M224.18,84.36a5.68,5.68,0,0,1-.63,3.06,2.07,2.07,0,0,1-1.83,1c-1.64,0-2.47-1.28-2.47-3.83a5.67,5.67,0,0,1,.64-3.06,2.07,2.07,0,0,1,1.83-1Q224.18,80.53,224.18,84.36Zm-1.29.09a6.54,6.54,0,0,0-.29-2.33,1,1,0,0,0-.88-.67,1,1,0,0,0-.88.66,6.29,6.29,0,0,0-.3,2.34,5.72,5.72,0,0,0,.33,2.4,1,1,0,0,0,.85.59,1,1,0,0,0,.88-.67A6.36,6.36,0,0,0,222.89,84.45Z" transform="translate(0 -0.04)" fill="#000000"/><path class="cls-3" d="M232.24,84.36a5.68,5.68,0,0,1-.63,3.06,2.07,2.07,0,0,1-1.83,1c-1.64,0-2.47-1.28-2.47-3.83a5.67,5.67,0,0,1,.64-3.06,2.07,2.07,0,0,1,1.83-1Q232.24,80.53,232.24,84.36Zm-1.29.09a6.54,6.54,0,0,0-.29-2.33,1,1,0,0,0-.88-.67,1,1,0,0,0-.88.66,6.29,6.29,0,0,0-.3,2.34,5.72,5.72,0,0,0,.33,2.4,1,1,0,0,0,.85.59,1,1,0,0,0,.88-.67A6.36,6.36,0,0,0,231,84.45Z" transform="translate(0 -0.04)" fill="#000000"/><path class="cls-3" d="M235.43,86.71l1.09-.32c.16.67.52,1,1.06,1a1,1,0,0,0,1-.74,5.88,5.88,0,0,0,.34-2.11,1.64,1.64,0,0,1-1.55,1,1.9,1.9,0,0,1-1.47-.68,3,3,0,0,1,0-3.63,2.22,2.22,0,0,1,1.72-.71c1.62,0,2.44,1.2,2.44,3.58q0,4.26-2.58,4.26a2.12,2.12,0,0,1-1.31-.38A2.49,2.49,0,0,1,235.43,86.71Zm3.39-3.7a1.85,1.85,0,0,0-.31-1.09,1,1,0,0,0-.84-.42,1,1,0,0,0-.83.4,1.77,1.77,0,0,0-.32,1.13,1.73,1.73,0,0,0,.3,1.08,1,1,0,0,0,.85.41,1,1,0,0,0,.85-.44A1.85,1.85,0,0,0,238.82,83Z" transform="translate(0 -0.04)" fill="#000000"/></g></g></svg>